<?xml version="1.0" encoding="utf-8"?>
<!-- Generator: Adobe Illustrator 24.0.1, SVG Export Plug-In . SVG Version: 6.00 Build 0)  -->
<svg version="1.1" id="Layer_1" xmlns="http://www.w3.org/2000/svg" xmlns:xlink="http://www.w3.org/1999/xlink" x="0px" y="0px"
	 viewBox="0 0 155.31 36.91" style="enable-background:new 0 0 155.31 36.91;" xml:space="preserve">
<style type="text/css">
	.st0{fill:#FFFFFF;}
	.st1{fill-rule:evenodd;clip-rule:evenodd;fill:#FFFFFF;}
	.st2{fill:#231F20;}
	.st3{fill-rule:evenodd;clip-rule:evenodd;fill:#231F20;}
	.st4{fill-rule:evenodd;clip-rule:evenodd;fill:#ED1C24;}
</style>
<g>
	<g>
		<path class="st0" d="M64.43,37c-1.15,0-2.18-0.73-2.54-1.84c-0.4-1.2,0.09-2.51,1.18-3.15c0.43-0.26,0.84-0.53,1.21-0.8
			c-0.17-0.26-0.29-0.56-0.36-0.86H5.42c-1.48,0-2.68-1.2-2.68-2.68V10.04c0-1.48,1.2-2.68,2.68-2.68h67.4
			c3.35-4.71,7.3-7.47,11.77-8.22c1.12-0.19,2.23,0.35,2.78,1.33c0.55,0.99,0.43,2.21-0.31,3.07c-0.9,1.04-1.67,2.4-2.33,3.82h62.43
			c1.48,0,2.68,1.2,2.68,2.68v17.63c0,1.48-1.2,2.68-2.68,2.68H75.29c-2.83,4.02-6.31,6.2-10.59,6.64C64.61,37,64.52,37,64.43,37z
			 M74.3,24.98h70.17V12.72H80.75c-0.88,0-1.7-0.43-2.2-1.14c-0.5-0.72-0.62-1.63-0.32-2.46c0-0.01,0-0.01,0.01-0.02
			c-0.6,0.72-1.18,1.51-1.74,2.39c-0.49,0.77-1.34,1.23-2.25,1.23H8.1v12.26h58.95c0.47-0.89,0.86-1.87,1.28-2.93
			c1.12-2.83,2.38-6.03,5.75-8.06c1.13-0.68,2.59-0.44,3.44,0.57c0.85,1.01,0.84,2.49-0.02,3.48c-1.43,1.65-2.13,3.75-2.94,6.19
			C74.47,24.48,74.39,24.73,74.3,24.98z"/>
	</g>
	<g>
		<path class="st1" d="M80.75,10.04h66.41v17.63H73.85c-2.22,3.61-5.14,6.21-9.42,6.65c8.12-4.82,6.53-12.83,11.04-18.03
			c-5.04,3.03-4.12,9.87-8.95,13.46c0.18-0.65,0.37-1.35,0.58-2.08H5.42V10.04h68.82c2.71-4.21,6.22-7.49,10.79-8.26
			C83.27,3.82,81.95,6.76,80.75,10.04"/>
	</g>
	<g>
		<path class="st2" d="M147.83,28.34H70.94l7.51-18.98h69.38V28.34z M72.93,26.99h73.56V10.71H79.37L72.93,26.99z"/>
	</g>
	<g>
		<polygon class="st3" points="78.91,10.04 147.16,10.04 147.16,27.67 71.94,27.67 		"/>
	</g>
	<g>
		<path class="st2" d="M68.63,28.36H4.72V9.35h71.2L68.63,28.36z M6.1,26.98h61.58l6.23-16.25H6.1V26.98z"/>
	</g>
	<g>
		<polygon class="st1" points="5.42,10.04 74.92,10.04 68.16,27.67 5.42,27.67 		"/>
	</g>
	<g>
		<path class="st2" d="M54.45,24.14l2.27-10.05h8.03l-0.38,1.68h-5.81l-0.53,2.27h5.63l-0.38,1.68h-5.64L57,22.46h6.3l-0.38,1.68
			H54.45z M48.27,24.14h-2.23l1.89-8.37h-3.18l0.36-1.68h8.55l-0.36,1.68h-3.13L48.27,24.14z M37.61,24.14l2.27-10.05h2.23
			l-2.27,10.05H37.61z M32.59,19.65h-4.21l-1.02,4.49h-2.23l2.27-10.05h2.23l-0.88,3.87h4.21l0.88-3.87h2.23L33.8,24.14h-2.23
			L32.59,19.65z M19.49,24.14h-2.26l-0.24-7.35l-3.96,7.35h-2.3l-0.39-10.05h2.18l0.09,7.03l3.75-7.03h2.4l0.26,6.96l3.58-6.96h2.17
			L19.49,24.14z"/>
	</g>
	<g>
		<path class="st0" d="M130.86,24.31l2.47-10.91h8.72l-0.41,1.83h-6.3l-0.58,2.47h6.11l-0.41,1.83h-6.13l-0.7,2.96h6.84l-0.41,1.83
			H130.86z M120.06,24.31l2.47-10.91h2.42l-2.05,9.08h6l-0.41,1.83H120.06z M112.92,18.47h5.3l-1.05,4.7
			c-0.63,0.37-1.39,0.69-2.29,0.95c-0.9,0.26-1.83,0.39-2.77,0.39c-1.46,0-2.58-0.3-3.36-0.92c-1.06-0.84-1.6-2.05-1.6-3.63
			c0-1.06,0.23-2.08,0.68-3.06c0.55-1.17,1.32-2.08,2.33-2.73c1.01-0.65,2.19-0.97,3.55-0.97c1.36,0,2.45,0.29,3.28,0.88
			c0.82,0.59,1.37,1.44,1.64,2.56l-2.25,0.24c-0.2-0.61-0.52-1.08-0.96-1.39c-0.44-0.31-1-0.47-1.67-0.47
			c-0.78,0-1.5,0.19-2.15,0.57c-0.66,0.38-1.17,0.96-1.54,1.75c-0.37,0.79-0.55,1.66-0.55,2.59c0,0.92,0.23,1.6,0.68,2.04
			c0.45,0.44,1.11,0.66,1.98,0.66c0.52,0,1.06-0.07,1.61-0.2c0.55-0.14,1.02-0.3,1.42-0.49l0.37-1.64h-3.05L112.92,18.47z
			 M101.14,20.07l-0.7-4.39l-2.6,4.39H101.14z M101.43,21.9h-4.67l-1.42,2.41h-2.51l6.65-10.91h2.74l1.9,10.91h-2.3L101.43,21.9z
			 M81.93,24.31l2.47-10.91h8.72l-0.41,1.83h-6.3l-0.58,2.47h6.11l-0.41,1.83h-6.13l-0.7,2.96h6.84l-0.41,1.83H81.93z"/>
	</g>
	<g>
		<path class="st0" d="M64.43,35.01c-0.29,0-0.56-0.19-0.65-0.47c-0.1-0.31,0.02-0.65,0.3-0.81c3.74-2.22,5.33-5.17,6.47-8.21
			c-0.81,1.78-1.84,3.48-3.62,4.79c-0.24,0.18-0.56,0.18-0.8,0.02c-0.24-0.17-0.35-0.47-0.28-0.75c1.19-4.34,2.98-10.9,5.95-16.68
			C75.38,5.93,79.8,1.96,84.92,1.1c0.29-0.05,0.57,0.09,0.72,0.34c0.14,0.25,0.11,0.57-0.08,0.79c-2.53,2.92-4.14,7.81-5.84,12.99
			c-1.48,4.5-3.02,9.15-5.28,12.82c-2.63,4.26-5.88,6.54-9.93,6.96C64.48,35.01,64.45,35.01,64.43,35.01z M75.46,15.6
			c0.2,0,0.39,0.09,0.53,0.25c0.22,0.26,0.22,0.64-0.01,0.9c-1.69,1.95-2.48,4.34-3.32,6.87c-1.05,3.15-2.12,6.38-4.95,9.1
			c5.66-2.68,8.21-10.41,10.69-17.92c1.48-4.48,2.89-8.75,4.92-11.86C74.6,5.94,70.23,19.11,67.88,27.41
			c1.01-1.36,1.65-2.96,2.3-4.63c1.05-2.66,2.13-5.4,4.93-7.08C75.22,15.64,75.34,15.6,75.46,15.6z"/>
	</g>
	<g>
		<path class="st4" d="M66.52,29.75c2.39-8.73,7.18-26.07,18.51-27.97c-7.12,8.24-7.08,31.13-20.6,32.54
			c8.12-4.82,6.53-12.83,11.03-18.03C70.43,19.33,71.35,26.17,66.52,29.75"/>
	</g>
</g>
</svg>
